<svg xmlns="http://www.w3.org/2000/svg" xmlns:xlink="http://www.w3.org/1999/xlink" width="400" zoomAndPan="magnify" viewBox="0 0 450 449.999984" height="600" preserveAspectRatio="xMidYMid meet" version="1.0"><defs><clipPath id="ded80b86a3"><path d="M 203 203 L 260 203 L 260 260 L 203 260 Z M 203 203 " clip-rule="nonzero"/></clipPath><clipPath id="69011b4339"><path d="M 230.695312 179.335938 L 270.46875 219.113281 L 219.027344 270.554688 L 179.253906 230.777344 Z M 230.695312 179.335938 " clip-rule="nonzero"/></clipPath><clipPath id="6e1efaff79"><path d="M 230.695312 179.335938 L 270.46875 219.113281 L 219.027344 270.554688 L 179.253906 230.777344 Z M 230.695312 179.335938 " clip-rule="nonzero"/></clipPath><clipPath id="f925f8660c"><path d="M 189 190 L 247 190 L 247 247 L 189 247 Z M 189 190 " clip-rule="nonzero"/></clipPath><clipPath id="bd11aa2acc"><path d="M 230.695312 179.335938 L 270.46875 219.113281 L 219.027344 270.554688 L 179.253906 230.777344 Z M 230.695312 179.335938 " clip-rule="nonzero"/></clipPath><clipPath id="b7f5eed7ea"><path d="M 230.695312 179.335938 L 270.46875 219.113281 L 219.027344 270.554688 L 179.253906 230.777344 Z M 230.695312 179.335938 " clip-rule="nonzero"/></clipPath></defs><g clip-path="url(#ded80b86a3)"><g clip-path="url(#69011b4339)"><g clip-path="url(#6e1efaff79)"><path fill="#5ce6b8" d="M 250.546875 210.621094 L 249.125 209.199219 L 254.84375 203.484375 L 256.261719 204.902344 C 260.96875 209.609375 260.941406 217.261719 256.207031 221.996094 L 246.203125 232 C 245.304688 232.898438 244.878906 234.167969 245.054688 235.421875 L 245.890625 241.402344 C 246.058594 242.597656 245.675781 243.808594 244.855469 244.703125 C 244.035156 245.59375 242.855469 246.074219 241.648438 246.007812 L 234.503906 245.605469 C 233.355469 245.542969 232.230469 245.972656 231.414062 246.789062 L 221.914062 256.292969 C 217.175781 261.027344 209.523438 261.050781 204.820312 256.34375 L 203.398438 254.925781 L 209.117188 249.210938 L 210.535156 250.628906 C 212.105469 252.199219 214.65625 252.191406 216.234375 250.613281 L 225.734375 241.109375 C 228.183594 238.660156 231.554688 237.371094 235.003906 237.5625 L 237.226562 237.6875 L 237.074219 236.585938 C 236.546875 232.820312 237.828125 229.019531 240.527344 226.320312 L 250.527344 216.316406 C 252.105469 214.738281 252.113281 212.1875 250.546875 210.621094 Z M 250.546875 210.621094 " fill-opacity="1" fill-rule="evenodd"/></g></g></g><g clip-path="url(#f925f8660c)"><g clip-path="url(#bd11aa2acc)"><g clip-path="url(#b7f5eed7ea)"><path fill="#5ce6b8" d="M 239.1875 199.261719 L 240.605469 200.679688 L 246.324219 194.964844 L 244.902344 193.546875 C 240.199219 188.839844 232.546875 188.863281 227.8125 193.597656 L 217.808594 203.601562 C 216.910156 204.5 215.640625 204.929688 214.386719 204.753906 L 208.40625 203.917969 C 207.210938 203.75 205.996094 204.128906 205.105469 204.953125 C 204.210938 205.773438 203.734375 206.949219 203.800781 208.15625 L 204.199219 215.304688 C 204.261719 216.453125 203.832031 217.578125 203.015625 218.394531 L 193.515625 227.894531 C 188.78125 232.628906 188.757812 240.28125 193.460938 244.988281 L 194.882812 246.40625 L 200.597656 240.691406 L 199.175781 239.269531 C 197.609375 237.703125 197.617188 235.152344 199.195312 233.574219 L 208.695312 224.074219 C 211.144531 221.625 212.4375 218.25 212.246094 214.804688 L 212.121094 212.578125 L 213.222656 212.734375 C 216.984375 213.257812 220.789062 211.980469 223.488281 209.28125 L 233.488281 199.277344 C 235.066406 197.699219 237.621094 197.691406 239.1875 199.261719 Z M 239.1875 199.261719 " fill-opacity="1" fill-rule="evenodd"/></g></g></g></svg>