<svg xmlns="http://www.w3.org/2000/svg" xmlns:xlink="http://www.w3.org/1999/xlink" width="204" zoomAndPan="magnify" viewBox="0 0 153 74.999997" height="100" preserveAspectRatio="xMidYMid meet" version="1.0"><defs><g/></defs><g fill="var(--marca-bg)" fill-opacity="1"><g transform="translate(7.070134, 51.339811)"><g><path d="M 19.921875 -18.828125 L 6.1875 -13.53125 L 19.921875 -8.234375 L 19.921875 -5.03125 L 2.59375 -11.875 L 2.59375 -15.203125 L 19.921875 -22.046875 Z M 19.921875 -18.828125 "/></g></g></g><g fill="var(--marca-bg)" fill-opacity="1"><g transform="translate(30.596069, 53.334742)"><g><path d="M 16.578125 -8.203125 L 11.8125 -8.203125 L 11.8125 0 L 3.09375 0 L 3.09375 -30.859375 L 17.203125 -30.859375 C 19.992188 -30.859375 22.414062 -30.394531 24.46875 -29.46875 C 26.53125 -28.550781 28.117188 -27.226562 29.234375 -25.5 C 30.347656 -23.78125 30.90625 -21.765625 30.90625 -19.453125 C 30.90625 -17.210938 30.382812 -15.257812 29.34375 -13.59375 C 28.300781 -11.9375 26.8125 -10.640625 24.875 -9.703125 L 31.53125 0 L 22.171875 0 Z M 22.09375 -19.453125 C 22.09375 -20.890625 21.632812 -22.003906 20.71875 -22.796875 C 19.8125 -23.585938 18.460938 -23.984375 16.671875 -23.984375 L 11.8125 -23.984375 L 11.8125 -14.953125 L 16.671875 -14.953125 C 18.460938 -14.953125 19.8125 -15.335938 20.71875 -16.109375 C 21.632812 -16.890625 22.09375 -18.003906 22.09375 -19.453125 Z M 22.09375 -19.453125 "/></g></g></g><g fill="var(--marca-bg)" fill-opacity="1"><g transform="translate(63.220558, 53.334742)"><g><path d="M 27.125 -11.90625 C 27.125 -11.84375 27.078125 -11.148438 26.984375 -9.828125 L 9.609375 -9.828125 C 9.960938 -8.597656 10.644531 -7.648438 11.65625 -6.984375 C 12.675781 -6.328125 13.953125 -6 15.484375 -6 C 16.628906 -6 17.617188 -6.160156 18.453125 -6.484375 C 19.285156 -6.804688 20.128906 -7.332031 20.984375 -8.0625 L 25.390625 -3.484375 C 23.078125 -0.898438 19.6875 0.390625 15.21875 0.390625 C 12.425781 0.390625 9.96875 -0.132812 7.84375 -1.1875 C 5.726562 -2.25 4.085938 -3.71875 2.921875 -5.59375 C 1.765625 -7.476562 1.1875 -9.613281 1.1875 -12 C 1.1875 -14.34375 1.75 -16.445312 2.875 -18.3125 C 4.007812 -20.1875 5.578125 -21.648438 7.578125 -22.703125 C 9.578125 -23.765625 11.828125 -24.296875 14.328125 -24.296875 C 16.710938 -24.296875 18.875 -23.800781 20.8125 -22.8125 C 22.75 -21.832031 24.285156 -20.40625 25.421875 -18.53125 C 26.554688 -16.664062 27.125 -14.457031 27.125 -11.90625 Z M 14.375 -18.34375 C 13.082031 -18.34375 12 -17.972656 11.125 -17.234375 C 10.257812 -16.503906 9.710938 -15.507812 9.484375 -14.25 L 19.265625 -14.25 C 19.035156 -15.507812 18.484375 -16.503906 17.609375 -17.234375 C 16.742188 -17.972656 15.664062 -18.34375 14.375 -18.34375 Z M 14.375 -18.34375 "/></g></g></g><g fill="var(--marca-bg)" fill-opacity="1"><g transform="translate(91.524507, 53.334742)"><g><path d="M 18.25 -24.296875 C 21.21875 -24.296875 23.601562 -23.410156 25.40625 -21.640625 C 27.21875 -19.878906 28.125 -17.222656 28.125 -13.671875 L 28.125 0 L 19.75 0 L 19.75 -12.296875 C 19.75 -15.566406 18.441406 -17.203125 15.828125 -17.203125 C 14.390625 -17.203125 13.234375 -16.726562 12.359375 -15.78125 C 11.492188 -14.84375 11.0625 -13.429688 11.0625 -11.546875 L 11.0625 0 L 2.6875 0 L 2.6875 -23.90625 L 10.671875 -23.90625 L 10.671875 -21.296875 C 11.609375 -22.265625 12.722656 -23.003906 14.015625 -23.515625 C 15.316406 -24.035156 16.726562 -24.296875 18.25 -24.296875 Z M 18.25 -24.296875 "/></g></g></g><g fill="var(--marca-bg)" fill-opacity="1"><g transform="translate(123.432564, 51.339811)"><g><path d="M 19.921875 -15.203125 L 19.921875 -11.875 L 2.59375 -5.03125 L 2.59375 -8.234375 L 16.359375 -13.53125 L 2.59375 -18.828125 L 2.59375 -22.046875 Z M 19.921875 -15.203125 "/></g></g></g></svg>